<?xml version="1.0" encoding="UTF-8"?>
<svg version="1.1" viewBox="0 0 1076 1060" width="269" height="265" xmlns="http://www.w3.org/2000/svg">
<path transform="translate(0)" d="m0 0h1076v1060h-1076z" fill="#fff"/>
<path transform="translate(159,603)" d="m0 0 13 1 12 5 10 9 8 13 8 16 22 45 11 23 16 34 24 50 13 28 2 5 1-2v-223l1-1h38v257l-3 15-5 8-7 6-9 3-13-1-10-4-7-5-9-12-12-23-13-28-14-28-13-28-11-22-13-28-12-25-11-23-2-5-1 229h-39v-254l3-16 4-8 7-7z" fill="#010101"/>
<path transform="translate(212,61)" d="m0 0h25l17 3 14 5 13 7 11 9 7 7 8 13 5 12 2 9v26l-4 13-6 12-11 12-12 10v2l10 5 11 7 11 10 7 11 5 10 4 16v21l-3 16-5 12-6 10-9 10-9 7-10 6-12 5-20 4-17 1h-56v-33l50-1 18-2 13-4 8-4 10-9 5-10 3-16v-10l-3-15-6-11-8-6-16-8-11-3-63-1v-31h33l23-2 11-4 13-8 7-8 4-9 1-6v-17l-4-13-8-11-10-7-12-5-6-1h-21l-12 3-11 6-8 7-7 12-4 13-2 16-1 198h-38l-1-1v-41l1-163 2-14 5-16 8-16 8-11 10-10 14-9 14-6 13-3z" fill="#010101"/>
<path transform="translate(441,154)" d="m0 0h25l12 2 16 5 14 7 14 11 8 8 8 11 9 17 5 16 2 12 1 13v96h-35l-1-99-3-16-5-13-7-12-12-12-11-6-8-3-12-2h-17l-13 3-14 7-10 9-8 9-8 16-3 18 1 17 5 16 7 12 12 12 14 8 14 4 8 1h9l17-4 16-8 15-11h1v36l-5 5-11 7-13 6-12 3-17 1-20-2-21-7-14-8-14-12-11-13-9-16-6-18-2-12-1-15 3-22 5-15 9-17 13-16 8-7 13-9 14-7 13-4z" fill="#010101"/>
<path transform="translate(669,154)" d="m0 0h26l16 3 14 5 13 7 14 11 9 10 9 14 6 12 5 17 2 14 1 16v89h-35l-1-95-2-15-5-15-7-13-11-12-11-7-10-4-12-2h-16l-11 2-12 5-9 6-8 7-8 11-5 10-3 10-1 7v16l3 14 8 16 8 10 11 8 11 6 12 3 8 1h9l17-4 16-8 9-7 5-4 2 1v20l-1 16-10 8-16 8-15 4h-28l-12-2-15-5-16-9-14-12-10-11-10-17-6-18-2-9-1-11v-11l3-21 6-16 9-16 13-15 13-11 18-10 20-6z" fill="#010101"/>
<path transform="translate(460,694)" d="m0 0h26l12 2 15 5 14 7 13 10 10 10 9 13 8 16 5 18 2 17 1 99-1 1h-34l-1-82-1-18-3-16-7-16-7-11-10-9-10-6-13-4-8-1h-16l-14 3-14 7-12 11-7 9-6 12-3 12v24l5 17 6 10 11 12 10 7 9 4 11 3 8 1h10l16-4 9-4 10-6 11-8h2v35l-5 5-13 8-11 5-12 3h-29l-15-3-13-5-13-7-14-11-8-9-9-13-7-14-5-19-1-7v-24l4-19 5-12 8-14 9-11 5-6 17-13 19-9 15-4z" fill="#010101"/>
<path transform="translate(611,697)" d="m0 0h35l1 123 4 15 6 11 8 8 12 6 9 2h16l12-3 9-5 5-4 6-8 5-13 2-12 1-120h34l1 1v99l-1 28-3 16-5 14-8 13-6 7-12 9-15 7-10 3h-4v89l-1 1h-34l-1-88-24-8-10-5-10-8-9-11-6-12-5-18-2-21z" fill="#010101"/>
<path transform="translate(892,154)" d="m0 0h26l15 3 12 5 11 6 12 11 9 13 7 15 4 15 1 9v121h-34l-1-107-2-17-3-10-6-12-8-9-12-6-11-2h-16l-12 3-10 6-8 9-6 13-3 14-1 10v107l-1 1h-35v-29l1-88 2-17 5-16 7-13 8-10 7-7 13-9 12-5 10-3z" fill="#010101"/>
</svg>
